<svg width="128" height="128" viewBox="0 0 128 128" fill="none" xmlns="http://www.w3.org/2000/svg">
<path d="M21.9766 12C16.4492 12 12 16.4609 12 22V108.031C12 113.574 16.4492 118.031 21.9766 118.031H106.02C111.551 118.031 116 113.574 116 108.031V35.9453C116 29.3164 110.641 23.9453 104.027 23.9453H58C55.5469 23.9453 53.3047 22.5586 52.2031 20.3633L50.6992 17.3711C49.043 14.0781 45.6797 12 42 12H21.9766Z" fill="#438DE6"/>
<path d="M65.9766 36C63.2305 36 60.75 37.1016 58.9492 38.8906C56.6758 41.1445 53.5664 44 50.3164 44H21.9766C16.4492 44 12 48.4609 12 54V108.031C12 113.574 16.4492 118.031 21.9766 118.031H106.02C111.551 118.031 116 113.574 116 108.031V46C116 40.4609 111.551 36 106.02 36H65.9766Z" fill="url(#paint0_linear_2_2)"/>
<path d="M65.9766 32C63.2305 32 60.75 33.1016 58.9492 34.8906C56.6758 37.1445 53.5664 40 50.3164 40H21.9766C16.4492 40 12 44.4609 12 50V105.977C12 111.516 16.4492 115.977 21.9766 115.977H106.02C111.551 115.977 116 111.516 116 105.977V42C116 36.4609 111.551 32 106.02 32H65.9766Z" fill="#A4CAEE"/>
<circle cx="80" cy="87" r="5" fill="#438DE6"/>
<path fill-rule="evenodd" clip-rule="evenodd" d="M60 91.9742L68.5675 60H75.1932L66.6188 92H60.0965L60 91.9742Z" fill="#438DE6"/>
<path d="M38 79H37.5L41 79.0016L41 79.001L41 79.0005L41 78.9992L41.0006 78.9797C41.0013 78.9608 41.0029 78.9305 41.0062 78.8903C41.0127 78.8098 41.0262 78.6909 41.0537 78.5467C41.109 78.2562 41.2188 77.8748 41.4341 77.4981C41.846 76.7773 42.6812 76 44.5 76C44.8509 76 45.2179 76.1528 45.6727 76.4608C45.9744 76.6652 46.2708 76.9051 46.6032 77.1741C46.7866 77.3224 46.9809 77.4797 47.193 77.6447C48.3495 78.5441 49.8339 79.5 52 79.5C53.5875 79.5 54.8114 79.1017 55.7461 78.4785C56.6777 77.8574 57.2926 77.0329 57.6972 76.2236C58.1009 75.4162 58.3002 74.6149 58.3994 74.0197C58.4492 73.7209 58.4743 73.4708 58.487 73.2934C58.4934 73.2047 58.4966 73.1339 58.4983 73.084C58.4991 73.0591 58.4995 73.0394 58.4998 73.0253L58.5 73.0083L58.5 73.0031L58.5 73.0013L58.5 73.0006C58.5 73.0003 58.5 73 58 73H58.5V72.5H58H55.5H55V72.9984L55 72.9984L55 72.999L55 72.9995V73L55 73.0008L54.9994 73.0203C54.9987 73.0392 54.9971 73.0695 54.9938 73.1097C54.9873 73.1902 54.9738 73.3091 54.9463 73.4533C54.891 73.7438 54.7812 74.1252 54.5659 74.5019C54.154 75.2227 53.3188 76 51.5 76C50.303 76 49.5869 75.3699 48.6464 74.5425C48.5834 74.4871 48.5195 74.4308 48.4543 74.3737C47.4266 73.4745 46.1849 72.5 44 72.5C42.4125 72.5 41.1886 72.8983 40.2539 73.5215C39.3223 74.1426 38.7074 74.9671 38.3028 75.7764C37.8991 76.5838 37.6998 77.3851 37.6006 77.9803C37.5508 78.2791 37.5257 78.5292 37.513 78.7066C37.5066 78.7953 37.5034 78.8661 37.5017 78.916C37.5009 78.9409 37.5005 78.9606 37.5002 78.9747L37.5 78.9917L37.5 78.9969L37.5 78.9987L37.5 78.9994C37.5 78.9997 37.5 79 38 79Z" fill="#438DE6" stroke="#438DE6"/>
<defs>
<linearGradient id="paint0_linear_2_2" x1="11.9998" y1="112" x2="116" y2="112" gradientUnits="userSpaceOnUse">
<stop stop-color="#62A0EA"/>
<stop offset="0.0576991" stop-color="#AFD4FF"/>
<stop offset="0.122204" stop-color="#62A0EA"/>
<stop offset="0.873306" stop-color="#62A0EA"/>
<stop offset="0.955997" stop-color="#C0D5EA"/>
<stop offset="1" stop-color="#62A0EA"/>
</linearGradient>
</defs>
</svg>
