<svg width="128" height="128" viewBox="0 0 128 128" fill="none" xmlns="http://www.w3.org/2000/svg">
<path d="M21.9766 12C16.4492 12 12 16.4609 12 22V108.031C12 113.574 16.4492 118.031 21.9766 118.031H106.02C111.551 118.031 116 113.574 116 108.031V35.9453C116 29.3164 110.641 23.9453 104.027 23.9453H58C55.5469 23.9453 53.3047 22.5586 52.2031 20.3633L50.6992 17.3711C49.043 14.0781 45.6797 12 42 12H21.9766Z" fill="#438DE6"/>
<path d="M65.9766 36C63.2305 36 60.75 37.1016 58.9492 38.8906C56.6758 41.1445 53.5664 44 50.3164 44H21.9766C16.4492 44 12 48.4609 12 54V108.031C12 113.574 16.4492 118.031 21.9766 118.031H106.02C111.551 118.031 116 113.574 116 108.031V46C116 40.4609 111.551 36 106.02 36H65.9766Z" fill="url(#paint0_linear_3_6)"/>
<path d="M65.9766 32C63.2305 32 60.75 33.1016 58.9492 34.8906C56.6758 37.1445 53.5664 40 50.3164 40H21.9766C16.4492 40 12 44.4609 12 50V105.977C12 111.516 16.4492 115.977 21.9766 115.977H106.02C111.551 115.977 116 111.516 116 105.977V42C116 36.4609 111.551 32 106.02 32H65.9766Z" fill="#A4CAEE"/>
<g clip-path="url(#clip0_3_6)">
<path d="M79.3947 75.5733L65.4227 61.6026C65.0353 61.2167 64.5108 61 63.964 61C63.4172 61 62.8927 61.2167 62.5053 61.6026L59.6107 64.5026L63.2907 68.1826C63.7248 68.0355 64.1916 68.0132 64.6378 68.1181C65.084 68.223 65.4919 68.4509 65.8151 68.776C66.1382 69.1011 66.3637 69.5104 66.466 69.9572C66.5682 70.4041 66.543 70.8707 66.3933 71.304L69.9373 74.8506C70.4618 74.6683 71.0327 74.6694 71.5565 74.8539C72.0802 75.0384 72.5258 75.3954 72.8201 75.8662C73.1145 76.3371 73.2403 76.8939 73.1768 77.4456C73.1133 77.9972 72.8643 78.511 72.4707 78.9026C72.2432 79.1305 71.973 79.3113 71.6756 79.4346C71.3781 79.5579 71.0593 79.6214 70.7373 79.6214C70.4153 79.6214 70.0965 79.5579 69.7991 79.4346C69.5017 79.3113 69.2315 79.1305 69.004 78.9026C68.6631 78.5608 68.4303 78.1262 68.3345 77.653C68.2387 77.1798 68.2842 76.6888 68.4653 76.2413L65.1467 72.94V81.64C65.3813 81.7546 65.6027 81.9106 65.7973 82.104C66.254 82.5653 66.5101 83.1882 66.5101 83.8373C66.5101 84.4864 66.254 85.1093 65.7973 85.5706C65.569 85.7992 65.2979 85.9805 64.9994 86.1042C64.701 86.2279 64.3811 86.2916 64.058 86.2916C63.7349 86.2916 63.415 86.2279 63.1166 86.1042C62.8181 85.9805 62.547 85.7992 62.3187 85.5706C62.0907 85.3435 61.9099 85.0735 61.7865 84.7763C61.6631 84.4791 61.5996 84.1604 61.5996 83.8386C61.5996 83.5168 61.6631 83.1982 61.7865 82.901C61.9099 82.6037 62.0907 82.3338 62.3187 82.1066C62.5613 81.8666 62.8347 81.6853 63.1253 81.5653V72.78C62.826 72.6576 62.5539 72.4771 62.3249 72.2489C62.0958 72.0207 61.9142 71.7493 61.7907 71.4504C61.6672 71.1516 61.6042 70.8312 61.6053 70.5079C61.6065 70.1845 61.6717 69.8646 61.7973 69.5666L58.1813 65.9333L48.6 75.508C47.8 76.3146 47.8 77.62 48.6 78.4266L62.5733 92.396C62.7646 92.5875 62.9918 92.7394 63.2419 92.843C63.4919 92.9467 63.76 93 64.0307 93C64.3014 93 64.5694 92.9467 64.8194 92.843C65.0695 92.7394 65.2967 92.5875 65.488 92.396L79.3947 78.4893C79.5865 78.298 79.7387 78.0708 79.8426 77.8206C79.9465 77.5704 79.9999 77.3022 79.9999 77.0313C79.9999 76.7604 79.9465 76.4922 79.8426 76.242C79.7387 75.9918 79.5865 75.7645 79.3947 75.5733Z" fill="#438DE6"/>
</g>
<defs>
<linearGradient id="paint0_linear_3_6" x1="11.9998" y1="112" x2="116" y2="112" gradientUnits="userSpaceOnUse">
<stop stop-color="#62A0EA"/>
<stop offset="0.0576991" stop-color="#AFD4FF"/>
<stop offset="0.122204" stop-color="#62A0EA"/>
<stop offset="0.873306" stop-color="#62A0EA"/>
<stop offset="0.955997" stop-color="#C0D5EA"/>
<stop offset="1" stop-color="#62A0EA"/>
</linearGradient>
<clipPath id="clip0_3_6">
<rect width="32" height="32" fill="white" transform="translate(48 61)"/>
</clipPath>
</defs>
</svg>
