<svg id="visual" viewBox="0 0 2560 1440" width="2560" height="1440" xmlns="http://www.w3.org/2000/svg" xmlns:xlink="http://www.w3.org/1999/xlink" version="1.1"><rect x="0" y="0" width="2560" height="1440" fill="#102e39"></rect><defs><linearGradient id="grad1_0" x1="43.8%" y1="0%" x2="100%" y2="100%"><stop offset="14.444444444444446%" stop-color="#418556" stop-opacity="1"></stop><stop offset="85.55555555555554%" stop-color="#418556" stop-opacity="1"></stop></linearGradient></defs><defs><linearGradient id="grad1_1" x1="43.8%" y1="0%" x2="100%" y2="100%"><stop offset="14.444444444444446%" stop-color="#418556" stop-opacity="1"></stop><stop offset="85.55555555555554%" stop-color="#287959" stop-opacity="1"></stop></linearGradient></defs><defs><linearGradient id="grad1_2" x1="43.8%" y1="0%" x2="100%" y2="100%"><stop offset="14.444444444444446%" stop-color="#0d6d5b" stop-opacity="1"></stop><stop offset="85.55555555555554%" stop-color="#287959" stop-opacity="1"></stop></linearGradient></defs><defs><linearGradient id="grad1_3" x1="43.8%" y1="0%" x2="100%" y2="100%"><stop offset="14.444444444444446%" stop-color="#0d6d5b" stop-opacity="1"></stop><stop offset="85.55555555555554%" stop-color="#006059" stop-opacity="1"></stop></linearGradient></defs><defs><linearGradient id="grad1_4" x1="43.8%" y1="0%" x2="100%" y2="100%"><stop offset="14.444444444444446%" stop-color="#005355" stop-opacity="1"></stop><stop offset="85.55555555555554%" stop-color="#006059" stop-opacity="1"></stop></linearGradient></defs><defs><linearGradient id="grad1_5" x1="43.8%" y1="0%" x2="100%" y2="100%"><stop offset="14.444444444444446%" stop-color="#005355" stop-opacity="1"></stop><stop offset="85.55555555555554%" stop-color="#00474e" stop-opacity="1"></stop></linearGradient></defs><defs><linearGradient id="grad1_6" x1="43.8%" y1="0%" x2="100%" y2="100%"><stop offset="14.444444444444446%" stop-color="#073a45" stop-opacity="1"></stop><stop offset="85.55555555555554%" stop-color="#00474e" stop-opacity="1"></stop></linearGradient></defs><defs><linearGradient id="grad1_7" x1="43.8%" y1="0%" x2="100%" y2="100%"><stop offset="14.444444444444446%" stop-color="#073a45" stop-opacity="1"></stop><stop offset="85.55555555555554%" stop-color="#102e39" stop-opacity="1"></stop></linearGradient></defs><defs><linearGradient id="grad2_0" x1="0%" y1="0%" x2="56.3%" y2="100%"><stop offset="14.444444444444446%" stop-color="#418556" stop-opacity="1"></stop><stop offset="85.55555555555554%" stop-color="#418556" stop-opacity="1"></stop></linearGradient></defs><defs><linearGradient id="grad2_1" x1="0%" y1="0%" x2="56.3%" y2="100%"><stop offset="14.444444444444446%" stop-color="#287959" stop-opacity="1"></stop><stop offset="85.55555555555554%" stop-color="#418556" stop-opacity="1"></stop></linearGradient></defs><defs><linearGradient id="grad2_2" x1="0%" y1="0%" x2="56.3%" y2="100%"><stop offset="14.444444444444446%" stop-color="#287959" stop-opacity="1"></stop><stop offset="85.55555555555554%" stop-color="#0d6d5b" stop-opacity="1"></stop></linearGradient></defs><defs><linearGradient id="grad2_3" x1="0%" y1="0%" x2="56.3%" y2="100%"><stop offset="14.444444444444446%" stop-color="#006059" stop-opacity="1"></stop><stop offset="85.55555555555554%" stop-color="#0d6d5b" stop-opacity="1"></stop></linearGradient></defs><defs><linearGradient id="grad2_4" x1="0%" y1="0%" x2="56.3%" y2="100%"><stop offset="14.444444444444446%" stop-color="#006059" stop-opacity="1"></stop><stop offset="85.55555555555554%" stop-color="#005355" stop-opacity="1"></stop></linearGradient></defs><defs><linearGradient id="grad2_5" x1="0%" y1="0%" x2="56.3%" y2="100%"><stop offset="14.444444444444446%" stop-color="#00474e" stop-opacity="1"></stop><stop offset="85.55555555555554%" stop-color="#005355" stop-opacity="1"></stop></linearGradient></defs><defs><linearGradient id="grad2_6" x1="0%" y1="0%" x2="56.3%" y2="100%"><stop offset="14.444444444444446%" stop-color="#00474e" stop-opacity="1"></stop><stop offset="85.55555555555554%" stop-color="#073a45" stop-opacity="1"></stop></linearGradient></defs><defs><linearGradient id="grad2_7" x1="0%" y1="0%" x2="56.3%" y2="100%"><stop offset="14.444444444444446%" stop-color="#102e39" stop-opacity="1"></stop><stop offset="85.55555555555554%" stop-color="#073a45" stop-opacity="1"></stop></linearGradient></defs><g transform="translate(2560, 0)"><path d="M0 1368C-138.6 1340.2 -277.3 1312.3 -414.1 1274.4C-550.9 1236.5 -685.9 1188.4 -804.1 1106.7C-922.2 1025 -1023.5 909.7 -1076 781.8C-1128.5 653.8 -1132.1 513.4 -1172.7 381C-1213.2 248.6 -1290.6 124.3 -1368 0L0 0Z" fill="#0c343f"></path><path d="M0 1197C-121.3 1172.7 -242.6 1148.3 -362.3 1115.1C-482 1081.9 -600.2 1039.9 -703.6 968.4C-807 896.9 -895.6 796 -941.5 684C-987.4 572.1 -990.6 449.2 -1026.1 333.4C-1061.5 217.6 -1129.3 108.8 -1197 0L0 0Z" fill="#01404a"></path><path d="M0 1026C-104 1005.1 -207.9 984.3 -310.6 955.8C-413.2 927.4 -514.5 891.3 -603.1 830.1C-691.7 768.8 -767.6 682.2 -807 586.3C-846.3 490.4 -849.1 385.1 -879.5 285.8C-909.9 186.5 -967.9 93.2 -1026 0L0 0Z" fill="#004d52"></path><path d="M0 855C-86.6 837.6 -173.3 820.2 -258.8 796.5C-344.3 772.8 -428.7 742.8 -502.6 691.7C-576.4 640.6 -639.7 568.5 -672.5 488.6C-705.3 408.7 -707.6 320.9 -732.9 238.1C-758.2 155.4 -806.6 77.7 -855 0L0 0Z" fill="#005a58"></path><path d="M0 684C-69.3 670.1 -138.6 656.2 -207 637.2C-275.5 618.2 -343 594.2 -402 553.4C-461.1 512.5 -511.8 454.8 -538 390.9C-564.2 326.9 -566.1 256.7 -586.3 190.5C-606.6 124.3 -645.3 62.2 -684 0L0 0Z" fill="#00665a"></path><path d="M0 513C-52 502.6 -104 492.1 -155.3 477.9C-206.6 463.7 -257.2 445.7 -301.5 415C-345.8 384.4 -383.8 341.1 -403.5 293.2C-423.2 245.2 -424.5 192.5 -439.7 142.9C-454.9 93.2 -484 46.6 -513 0L0 0Z" fill="#1c735a"></path><path d="M0 342C-34.7 335 -69.3 328.1 -103.5 318.6C-137.7 309.1 -171.5 297.1 -201 276.7C-230.6 256.3 -255.9 227.4 -269 195.4C-282.1 163.5 -283 128.4 -293.2 95.3C-303.3 62.2 -322.6 31.1 -342 0L0 0Z" fill="#357f58"></path><path d="M0 171C-17.3 167.5 -34.7 164 -51.8 159.3C-68.9 154.6 -85.7 148.6 -100.5 138.3C-115.3 128.1 -127.9 113.7 -134.5 97.7C-141.1 81.7 -141.5 64.2 -146.6 47.6C-151.6 31.1 -161.3 15.5 -171 0L0 0Z" fill="#418556"></path></g><g transform="translate(0, 1440)"><path d="M0 -1368C111.8 -1277.3 223.7 -1186.6 379.8 -1168.8C535.9 -1151.1 736.3 -1206.4 804.1 -1106.7C871.9 -1007.1 807 -752.5 843 -612.5C879 -472.5 1016 -447 1120.3 -364C1224.7 -281 1296.3 -140.5 1368 0L0 0Z" fill="#0c343f"></path><path d="M0 -1197C97.8 -1117.6 195.7 -1038.2 332.3 -1022.7C468.9 -1007.2 644.3 -1055.6 703.6 -968.4C762.9 -881.2 706.1 -658.4 737.6 -535.9C769.2 -413.4 889 -391.1 980.3 -318.5C1071.6 -245.9 1134.3 -123 1197 0L0 0Z" fill="#01404a"></path><path d="M0 -1026C83.9 -958 167.7 -889.9 284.8 -876.6C401.9 -863.3 552.2 -904.8 603.1 -830.1C653.9 -755.3 605.2 -564.4 632.2 -459.4C659.3 -354.3 762 -335.3 840.3 -273C918.5 -210.8 972.3 -105.4 1026 0L0 0Z" fill="#004d52"></path><path d="M0 -855C69.9 -798.3 139.8 -741.6 237.4 -730.5C334.9 -719.5 460.2 -754 502.6 -691.7C544.9 -629.4 504.3 -470.3 526.9 -382.8C549.4 -295.3 635 -279.4 700.2 -227.5C765.4 -175.6 810.2 -87.8 855 0L0 0Z" fill="#005a58"></path><path d="M0 -684C55.9 -638.6 111.8 -593.3 189.9 -584.4C268 -575.6 368.2 -603.2 402 -553.4C435.9 -503.5 403.5 -376.2 421.5 -306.2C439.5 -236.2 508 -223.5 560.2 -182C612.3 -140.5 648.2 -70.3 684 0L0 0Z" fill="#00665a"></path><path d="M0 -513C41.9 -479 83.9 -445 142.4 -438.3C201 -431.7 276.1 -452.4 301.5 -415C326.9 -377.7 302.6 -282.2 316.1 -229.7C329.6 -177.2 381 -167.6 420.1 -136.5C459.3 -105.4 486.1 -52.7 513 0L0 0Z" fill="#1c735a"></path><path d="M0 -342C28 -319.3 55.9 -296.6 94.9 -292.2C134 -287.8 184.1 -301.6 201 -276.7C218 -251.8 201.7 -188.1 210.7 -153.1C219.8 -118.1 254 -111.8 280.1 -91C306.2 -70.3 324.1 -35.1 342 0L0 0Z" fill="#357f58"></path><path d="M0 -171C14 -159.7 28 -148.3 47.5 -146.1C67 -143.9 92 -150.8 100.5 -138.3C109 -125.9 100.9 -94.1 105.4 -76.6C109.9 -59.1 127 -55.9 140 -45.5C153.1 -35.1 162 -17.6 171 0L0 0Z" fill="#418556"></path></g></svg>